<?xml version="1.0" encoding="UTF-8" standalone="no"?>
<!DOCTYPE svg PUBLIC "-//W3C//DTD SVG 1.1//EN"
 "http://www.w3.org/Graphics/SVG/1.1/DTD/svg11.dtd">
<!-- Generated by graphviz version 2.43.0 (0)
 -->
<!-- Title: g Pages: 1 -->
<svg width="395pt" height="1199pt"
 viewBox="0.00 0.00 394.50 1199.00" xmlns="http://www.w3.org/2000/svg" xmlns:xlink="http://www.w3.org/1999/xlink">
<g id="graph0" class="graph" transform="scale(1 1) rotate(0) translate(4 1195)">
<title>g</title>
<polygon fill="white" stroke="transparent" points="-4,4 -4,-1195 390.5,-1195 390.5,4 -4,4"/>
<!-- box01 -->
<g id="node1" class="node">
<title>box01</title>
<path fill="white" stroke="black" d="M111,-1042.5C111,-1042.5 305,-1042.5 305,-1042.5 311,-1042.5 317,-1048.5 317,-1054.5 317,-1054.5 317,-1178.5 317,-1178.5 317,-1184.5 311,-1190.5 305,-1190.5 305,-1190.5 111,-1190.5 111,-1190.5 105,-1190.5 99,-1184.5 99,-1178.5 99,-1178.5 99,-1054.5 99,-1054.5 99,-1048.5 105,-1042.5 111,-1042.5"/>
<polygon fill="white" stroke="transparent" points="107,-1046.5 107,-1186.5 309,-1186.5 309,-1046.5 107,-1046.5"/>
<polygon fill="black" stroke="transparent" points="109,-1163.5 109,-1184.5 307,-1184.5 307,-1163.5 109,-1163.5"/>
<text text-anchor="start" x="179" y="-1170.3" font-family="Courier New" font-size="14.00" fill="white">PutInt:</text>
<text text-anchor="start" x="112" y="-1147.3" font-family="Courier New" font-size="14.00"> pusha</text>
<text text-anchor="start" x="112" y="-1124.3" font-family="Courier New" font-size="14.00"> mov &#160;&#160;&#160;esi,0x101</text>
<text text-anchor="start" x="112" y="-1101.3" font-family="Courier New" font-size="14.00"> mov &#160;&#160;&#160;BYTE [esi],0x20</text>
<text text-anchor="start" x="112" y="-1078.3" font-family="Courier New" font-size="14.00"> cmp &#160;&#160;&#160;ax,0x0</text>
<text text-anchor="start" x="112" y="-1055.3" font-family="Courier New" font-size="14.00"> jge &#160;&#160;&#160;.pi_positive</text>
</g>
<!-- box02 -->
<g id="node2" class="node">
<title>box02</title>
<path fill="white" stroke="black" d="M40,-934.5C40,-934.5 232,-934.5 232,-934.5 238,-934.5 244,-940.5 244,-946.5 244,-946.5 244,-978.5 244,-978.5 244,-984.5 238,-990.5 232,-990.5 232,-990.5 40,-990.5 40,-990.5 34,-990.5 28,-984.5 28,-978.5 28,-978.5 28,-946.5 28,-946.5 28,-940.5 34,-934.5 40,-934.5"/>
<polygon fill="white" stroke="transparent" points="36,-938.5 36,-986.5 236,-986.5 236,-938.5 36,-938.5"/>
<text text-anchor="start" x="41" y="-970.3" font-family="Courier New" font-size="14.00"> mov &#160;&#160;&#160;BYTE [esi],0x2d</text>
<text text-anchor="start" x="41" y="-947.3" font-family="Courier New" font-size="14.00"> neg &#160;&#160;&#160;ax</text>
</g>
<!-- box01&#45;&gt;box02 -->
<g id="edge1" class="edge">
<title>box01&#45;&gt;box02</title>
<path fill="none" stroke="black" d="M173.27,-1042.17C166.33,-1027.53 159.33,-1012.76 153.3,-1000.03"/>
<polygon fill="black" stroke="black" points="156.34,-998.27 148.9,-990.73 150.02,-1001.27 156.34,-998.27"/>
<text text-anchor="middle" x="181.5" y="-1012.8" font-family="Helvetica,Arial,sans-serif" font-size="14.00"> ax&lt;0</text>
</g>
<!-- box03 -->
<g id="node3" class="node">
<title>box03</title>
<path fill="white" stroke="black" d="M111,-748.5C111,-748.5 305,-748.5 305,-748.5 311,-748.5 317,-754.5 317,-760.5 317,-760.5 317,-884.5 317,-884.5 317,-890.5 311,-896.5 305,-896.5 305,-896.5 111,-896.5 111,-896.5 105,-896.5 99,-890.5 99,-884.5 99,-884.5 99,-760.5 99,-760.5 99,-754.5 105,-748.5 111,-748.5"/>
<polygon fill="white" stroke="transparent" points="107,-752.5 107,-892.5 309,-892.5 309,-752.5 107,-752.5"/>
<polygon fill="black" stroke="transparent" points="109,-869.5 109,-890.5 307,-890.5 307,-869.5 109,-869.5"/>
<text text-anchor="start" x="154" y="-876.3" font-family="Courier New" font-size="14.00" fill="white">.pi_positive:</text>
<text text-anchor="start" x="112" y="-853.3" font-family="Courier New" font-size="14.00"> mov &#160;&#160;&#160;bx,0xa </text>
<text text-anchor="start" x="112" y="-830.3" font-family="Courier New" font-size="14.00"> add &#160;&#160;&#160;esi,0x6 </text>
<text text-anchor="start" x="112" y="-807.3" font-family="Courier New" font-size="14.00"> mov &#160;&#160;&#160;BYTE [esi],0x0 </text>
<text text-anchor="start" x="112" y="-784.3" font-family="Courier New" font-size="14.00"> dec &#160;&#160;&#160;esi</text>
<text text-anchor="start" x="112" y="-761.3" font-family="Courier New" font-size="14.00"> mov &#160;&#160;&#160;cx,0x5 </text>
</g>
<!-- box01&#45;&gt;box03 -->
<g id="edge2" class="edge">
<title>box01&#45;&gt;box03</title>
<path fill="none" stroke="black" d="M241.18,-1042.13C252.18,-1009.23 260.02,-969.84 253,-934 251.2,-924.8 248.63,-915.39 245.61,-906.15"/>
<polygon fill="black" stroke="black" points="248.89,-904.9 242.33,-896.58 242.27,-907.18 248.89,-904.9"/>
<text text-anchor="middle" x="276.5" y="-958.8" font-family="Helvetica,Arial,sans-serif" font-size="14.00"> ax&gt;=0</text>
</g>
<!-- box02&#45;&gt;box03 -->
<g id="edge3" class="edge">
<title>box02&#45;&gt;box03</title>
<path fill="none" stroke="black" d="M150.22,-934.24C154.66,-925.73 159.81,-915.87 165.16,-905.61"/>
<polygon fill="black" stroke="black" points="168.39,-906.99 169.91,-896.51 162.18,-903.76 168.39,-906.99"/>
</g>
<!-- box04 -->
<g id="node4" class="node">
<title>box04</title>
<path fill="white" stroke="black" d="M98.5,-493.5C98.5,-493.5 317.5,-493.5 317.5,-493.5 323.5,-493.5 329.5,-499.5 329.5,-505.5 329.5,-505.5 329.5,-698.5 329.5,-698.5 329.5,-704.5 323.5,-710.5 317.5,-710.5 317.5,-710.5 98.5,-710.5 98.5,-710.5 92.5,-710.5 86.5,-704.5 86.5,-698.5 86.5,-698.5 86.5,-505.5 86.5,-505.5 86.5,-499.5 92.5,-493.5 98.5,-493.5"/>
<polygon fill="white" stroke="transparent" points="94.5,-497.5 94.5,-706.5 321.5,-706.5 321.5,-497.5 94.5,-497.5"/>
<polygon fill="black" stroke="transparent" points="97,-683 97,-704 320,-704 320,-683 97,-683"/>
<text text-anchor="start" x="146.5" y="-689.8" font-family="Courier New" font-size="14.00" fill="white">.putint_repeat:</text>
<text text-anchor="start" x="100" y="-666.8" font-family="Courier New" font-size="14.00"> mov &#160;&#160;&#160;dx,0x0</text>
<text text-anchor="start" x="100" y="-643.8" font-family="Courier New" font-size="14.00"> div &#160;&#160;&#160;bx &#160;&#160;&#160;&#160;</text>
<text text-anchor="start" x="100" y="-620.8" font-family="Courier New" font-size="14.00"> add &#160;&#160;&#160;dl,0x30 </text>
<text text-anchor="start" x="100" y="-597.8" font-family="Courier New" font-size="14.00"> mov &#160;&#160;&#160;BYTE PTR [esi],dl </text>
<text text-anchor="start" x="100" y="-574.8" font-family="Courier New" font-size="14.00"> dec &#160;&#160;&#160;esi </text>
<text text-anchor="start" x="100" y="-551.8" font-family="Courier New" font-size="14.00"> dec &#160;&#160;&#160;cx &#160;</text>
<text text-anchor="start" x="100" y="-528.8" font-family="Courier New" font-size="14.00"> cmp &#160;&#160;&#160;ax,0x0 </text>
<text text-anchor="start" x="100" y="-505.8" font-family="Courier New" font-size="14.00"> jne &#160;&#160;&#160;.putint_repeat</text>
</g>
<!-- box03&#45;&gt;box04 -->
<g id="edge4" class="edge">
<title>box03&#45;&gt;box04</title>
<path fill="none" stroke="black" d="M208,-748.44C208,-739.51 208,-730.22 208,-720.84"/>
<polygon fill="black" stroke="black" points="211.5,-720.65 208,-710.65 204.5,-720.65 211.5,-720.65"/>
</g>
<!-- box04&#45;&gt;box04 -->
<g id="edge5" class="edge">
<title>box04:se&#45;&gt;box04:ne</title>
<path fill="none" stroke="black" d="M330,-493C335.5,-461.5 347.5,-461.5 347.5,-602 347.5,-725.49 338.23,-740.44 332.25,-720.86"/>
<polygon fill="black" stroke="black" points="335.64,-719.97 330,-711 328.81,-721.53 335.64,-719.97"/>
<text text-anchor="middle" x="367" y="-598.3" font-family="Helvetica,Arial,sans-serif" font-size="14.00"> ax!=0</text>
</g>
<!-- box05 -->
<g id="node5" class="node">
<title>box05</title>
<path fill="white" stroke="black" d="M107.5,-405.5C107.5,-405.5 308.5,-405.5 308.5,-405.5 314.5,-405.5 320.5,-411.5 320.5,-417.5 320.5,-417.5 320.5,-429.5 320.5,-429.5 320.5,-435.5 314.5,-441.5 308.5,-441.5 308.5,-441.5 107.5,-441.5 107.5,-441.5 101.5,-441.5 95.5,-435.5 95.5,-429.5 95.5,-429.5 95.5,-417.5 95.5,-417.5 95.5,-411.5 101.5,-405.5 107.5,-405.5"/>
<polygon fill="white" stroke="transparent" points="103.5,-411 103.5,-436 312.5,-436 312.5,-411 103.5,-411"/>
<text text-anchor="start" x="109" y="-419.3" font-family="Courier New" font-size="14.00"> jcxz &#160;&#160;.pi_write_number</text>
</g>
<!-- box04&#45;&gt;box05 -->
<g id="edge6" class="edge">
<title>box04&#45;&gt;box05</title>
<path fill="none" stroke="black" d="M208,-493.5C208,-478.22 208,-463.76 208,-452.06"/>
<polygon fill="black" stroke="black" points="211.5,-451.75 208,-441.75 204.5,-451.75 211.5,-451.75"/>
<text text-anchor="middle" x="229.5" y="-463.8" font-family="Helvetica,Arial,sans-serif" font-size="14.00"> ax==0</text>
</g>
<!-- box06 -->
<g id="node6" class="node">
<title>box06</title>
<path fill="white" stroke="black" d="M12,-251.5C12,-251.5 246,-251.5 246,-251.5 252,-251.5 258,-257.5 258,-263.5 258,-263.5 258,-341.5 258,-341.5 258,-347.5 252,-353.5 246,-353.5 246,-353.5 12,-353.5 12,-353.5 6,-353.5 0,-347.5 0,-341.5 0,-341.5 0,-263.5 0,-263.5 0,-257.5 6,-251.5 12,-251.5"/>
<polygon fill="white" stroke="transparent" points="8,-255.5 8,-349.5 250,-349.5 250,-255.5 8,-255.5"/>
<text text-anchor="start" x="13" y="-333.3" font-family="Courier New" font-size="14.00"> mov &#160;&#160;&#160;bl,BYTE PTR ds:0x101</text>
<text text-anchor="start" x="13" y="-310.3" font-family="Courier New" font-size="14.00"> mov &#160;&#160;&#160;BYTE PTR [esi],bl</text>
<text text-anchor="start" x="13" y="-287.3" font-family="Courier New" font-size="14.00"> cmp &#160;&#160;&#160;bl,0x20</text>
<text text-anchor="start" x="13" y="-264.3" font-family="Courier New" font-size="14.00"> jne &#160;&#160;&#160;.pi_write_number</text>
</g>
<!-- box05&#45;&gt;box06 -->
<g id="edge7" class="edge">
<title>box05&#45;&gt;box06</title>
<path fill="none" stroke="black" d="M196.68,-405.45C189.09,-394.01 178.59,-378.2 168.13,-362.44"/>
<polygon fill="black" stroke="black" points="170.78,-360.11 162.34,-353.72 164.95,-363.98 170.78,-360.11"/>
<text text-anchor="middle" x="201.5" y="-375.8" font-family="Helvetica,Arial,sans-serif" font-size="14.00"> cx!=0</text>
</g>
<!-- box08 -->
<g id="node8" class="node">
<title>box08</title>
<path fill="white" stroke="black" d="M121.5,-0.5C121.5,-0.5 282.5,-0.5 282.5,-0.5 288.5,-0.5 294.5,-6.5 294.5,-12.5 294.5,-12.5 294.5,-113.5 294.5,-113.5 294.5,-119.5 288.5,-125.5 282.5,-125.5 282.5,-125.5 121.5,-125.5 121.5,-125.5 115.5,-125.5 109.5,-119.5 109.5,-113.5 109.5,-113.5 109.5,-12.5 109.5,-12.5 109.5,-6.5 115.5,-0.5 121.5,-0.5"/>
<polygon fill="white" stroke="transparent" points="117.5,-4.5 117.5,-121.5 286.5,-121.5 286.5,-4.5 117.5,-4.5"/>
<polygon fill="black" stroke="transparent" points="120,-98 120,-119 285,-119 285,-98 120,-98"/>
<text text-anchor="start" x="132" y="-104.8" font-family="Courier New" font-size="14.00" fill="white">.pi_write_number:</text>
<text text-anchor="start" x="123" y="-81.8" font-family="Courier New" font-size="14.00"> mov &#160;&#160;&#160;ecx,esi</text>
<text text-anchor="start" x="123" y="-58.8" font-family="Courier New" font-size="14.00"> call &#160;&#160;proc_PutStr</text>
<text text-anchor="start" x="123" y="-35.8" font-family="Courier New" font-size="14.00"> popa</text>
<text text-anchor="start" x="123" y="-12.8" font-family="Courier New" font-size="14.00"> ret</text>
</g>
<!-- box05&#45;&gt;box08 -->
<g id="edge8" class="edge">
<title>box05&#45;&gt;box08</title>
<path fill="none" stroke="black" d="M228.95,-405.47C242.66,-392.89 259.41,-374.45 267,-354 296.57,-274.37 285.48,-244.03 260,-163 257.02,-153.52 253,-143.98 248.46,-134.76"/>
<polygon fill="black" stroke="black" points="251.46,-132.94 243.76,-125.66 245.24,-136.15 251.46,-132.94"/>
<text text-anchor="middle" x="301" y="-221.8" font-family="Helvetica,Arial,sans-serif" font-size="14.00"> cx==0</text>
</g>
<!-- box07 -->
<g id="node7" class="node">
<title>box07</title>
<path fill="white" stroke="black" d="M60.5,-163.5C60.5,-163.5 153.5,-163.5 153.5,-163.5 159.5,-163.5 165.5,-169.5 165.5,-175.5 165.5,-175.5 165.5,-187.5 165.5,-187.5 165.5,-193.5 159.5,-199.5 153.5,-199.5 153.5,-199.5 60.5,-199.5 60.5,-199.5 54.5,-199.5 48.5,-193.5 48.5,-187.5 48.5,-187.5 48.5,-175.5 48.5,-175.5 48.5,-169.5 54.5,-163.5 60.5,-163.5"/>
<polygon fill="white" stroke="transparent" points="56.5,-169 56.5,-194 157.5,-194 157.5,-169 56.5,-169"/>
<text text-anchor="start" x="62" y="-177.3" font-family="Courier New" font-size="14.00"> inc &#160;&#160;&#160;esi</text>
</g>
<!-- box06&#45;&gt;box07 -->
<g id="edge9" class="edge">
<title>box06&#45;&gt;box07</title>
<path fill="none" stroke="black" d="M119.73,-251.38C117.1,-237.13 114.33,-222.15 112.05,-209.81"/>
<polygon fill="black" stroke="black" points="115.44,-208.93 110.19,-199.73 108.56,-210.2 115.44,-208.93"/>
<text text-anchor="middle" x="147.5" y="-221.8" font-family="Helvetica,Arial,sans-serif" font-size="14.00"> bl==0x20</text>
</g>
<!-- box06&#45;&gt;box08 -->
<g id="edge10" class="edge">
<title>box06&#45;&gt;box08</title>
<path fill="none" stroke="black" d="M172.44,-251.37C176.14,-245.44 179.44,-239.26 182,-233 194.41,-202.66 199.82,-166.87 201.96,-136.06"/>
<polygon fill="black" stroke="black" points="205.47,-136 202.57,-125.81 198.48,-135.59 205.47,-136"/>
<text text-anchor="middle" x="228" y="-177.8" font-family="Helvetica,Arial,sans-serif" font-size="14.00"> bl!=0x20</text>
</g>
<!-- box07&#45;&gt;box08 -->
<g id="edge11" class="edge">
<title>box07&#45;&gt;box08</title>
<path fill="none" stroke="black" d="M121.02,-163.31C127.7,-155.11 136.19,-144.7 145.14,-133.73"/>
<polygon fill="black" stroke="black" points="148.11,-135.62 151.72,-125.66 142.69,-131.2 148.11,-135.62"/>
</g>
</g>
</svg>
